<svg width="23" height="33" viewBox="0 0 23 33" fill="none" xmlns="http://www.w3.org/2000/svg">
<path d="M4.065 33C2.085 33 1.095 32.04 1.095 30.12C1.095 28.23 2.085 27.285 4.065 27.285H8.61V9.015L5.325 10.995C4.455 11.505 3.675 11.64 2.985 11.4C2.295 11.16 1.77 10.71 1.41 10.05C1.05 9.39 0.945 8.685 1.095 7.935C1.245 7.155 1.74 6.495 2.58 5.955L8.835 2.175C9.465 1.785 10.095 1.47 10.725 1.23C11.385 0.989998 12.03 0.869998 12.66 0.869998C13.56 0.869998 14.265 1.11 14.775 1.59C15.315 2.07 15.585 2.775 15.585 3.705V27.285H19.68C21.63 27.285 22.605 28.23 22.605 30.12C22.605 32.04 21.63 33 19.68 33H4.065Z" fill="#E3E3E3"/>
</svg>
