<svg width="24" height="33" viewBox="0 0 24 33" fill="none" xmlns="http://www.w3.org/2000/svg">
<path d="M4.21 33C3.07 33 2.245 32.745 1.735 32.235C1.225 31.695 0.97 30.915 0.97 29.895C0.97 29.235 1.135 28.62 1.465 28.05C1.795 27.48 2.245 26.895 2.815 26.295L11.275 17.385C12.535 16.035 13.435 14.835 13.975 13.785C14.545 12.735 14.83 11.685 14.83 10.635C14.83 7.935 13.165 6.585 9.835 6.585C8.965 6.585 8.065 6.705 7.135 6.945C6.235 7.185 5.29 7.605 4.3 8.205C3.49 8.685 2.74 8.79 2.05 8.52C1.39 8.25 0.895 7.785 0.565 7.125C0.265 6.465 0.19 5.775 0.34 5.055C0.52 4.305 1.015 3.69 1.825 3.21C3.145 2.4 4.585 1.8 6.145 1.41C7.705 0.989999 9.25 0.779999 10.78 0.779999C14.32 0.779999 17.02 1.575 18.88 3.165C20.77 4.725 21.715 6.96 21.715 9.87C21.715 11.79 21.265 13.635 20.365 15.405C19.495 17.145 18.055 19.035 16.045 21.075L9.925 27.285H20.365C22.315 27.285 23.29 28.23 23.29 30.12C23.29 32.04 22.315 33 20.365 33H4.21Z" fill="#E3E3E3"/>
</svg>
