<svg width="24" height="34" viewBox="0 0 24 34" fill="none" xmlns="http://www.w3.org/2000/svg">
<path d="M11.735 33.495C10.145 33.495 8.525 33.315 6.875 32.955C5.255 32.595 3.845 32.055 2.645 31.335C1.685 30.825 1.085 30.195 0.845 29.445C0.605 28.665 0.635 27.945 0.935 27.285C1.265 26.625 1.79 26.16 2.51 25.89C3.23 25.59 4.055 25.665 4.985 26.115C6.155 26.685 7.265 27.09 8.315 27.33C9.365 27.57 10.415 27.69 11.465 27.69C15.125 27.69 16.955 26.325 16.955 23.595C16.955 21.075 15.245 19.815 11.825 19.815H9.17C8.18 19.815 7.415 19.575 6.875 19.095C6.365 18.585 6.11 17.895 6.11 17.025C6.11 16.125 6.365 15.435 6.875 14.955C7.415 14.445 8.18 14.19 9.17 14.19H11.15C12.65 14.19 13.835 13.845 14.705 13.155C15.575 12.465 16.01 11.505 16.01 10.275C16.01 7.815 14.405 6.585 11.195 6.585C10.205 6.585 9.245 6.705 8.315 6.945C7.415 7.155 6.425 7.545 5.345 8.115C4.505 8.535 3.755 8.61 3.095 8.34C2.435 8.07 1.94 7.605 1.61 6.945C1.31 6.285 1.25 5.595 1.43 4.875C1.61 4.155 2.135 3.555 3.005 3.075C5.615 1.545 8.555 0.779999 11.825 0.779999C15.245 0.779999 17.915 1.545 19.835 3.075C21.755 4.605 22.715 6.705 22.715 9.375C22.715 11.025 22.295 12.48 21.455 13.74C20.615 15 19.445 15.915 17.945 16.485C19.745 16.995 21.14 17.94 22.13 19.32C23.15 20.67 23.66 22.305 23.66 24.225C23.66 27.105 22.595 29.37 20.465 31.02C18.335 32.67 15.425 33.495 11.735 33.495Z" fill="#E3E3E3"/>
</svg>
