<svg width="26" height="34" viewBox="0 0 26 34" fill="none" xmlns="http://www.w3.org/2000/svg">
<path d="M17.45 33.405C16.34 33.405 15.485 33.105 14.885 32.505C14.285 31.905 13.985 31.035 13.985 29.895V27.33H3.905C2.795 27.33 1.91 27.09 1.25 26.61C0.59 26.1 0.26 25.335 0.26 24.315C0.26 23.715 0.395 23.115 0.665 22.515C0.935 21.885 1.415 21.09 2.105 20.13L13.76 3.165C14.27 2.385 14.825 1.815 15.425 1.455C16.055 1.065 16.79 0.869998 17.63 0.869998C18.62 0.869998 19.4 1.17 19.97 1.77C20.54 2.34 20.825 3.21 20.825 4.38V21.84H22.49C24.5 21.84 25.505 22.755 25.505 24.585C25.505 26.415 24.5 27.33 22.49 27.33H20.825V29.895C20.825 31.035 20.525 31.905 19.925 32.505C19.355 33.105 18.53 33.405 17.45 33.405ZM13.985 21.84V11.355L6.875 21.84H13.985Z" fill="#E3E3E3"/>
</svg>
