<svg width="21" height="18" viewBox="0 0 21 18" fill="none" xmlns="http://www.w3.org/2000/svg">
<path d="M11.6719 4.89844C11.9955 4.89844 12.2578 4.6361 12.2578 4.3125C12.2578 3.9889 11.9955 3.72656 11.6719 3.72656C11.3483 3.72656 11.0859 3.9889 11.0859 4.3125C11.0859 4.6361 11.3483 4.89844 11.6719 4.89844Z" fill="#00730C"/>
<path d="M14.0156 4.89844C14.3392 4.89844 14.6016 4.6361 14.6016 4.3125C14.6016 3.9889 14.3392 3.72656 14.0156 3.72656C13.692 3.72656 13.4297 3.9889 13.4297 4.3125C13.4297 4.6361 13.692 4.89844 14.0156 4.89844Z" fill="#00730C"/>
<path d="M16.3594 4.89844C16.683 4.89844 16.9453 4.6361 16.9453 4.3125C16.9453 3.9889 16.683 3.72656 16.3594 3.72656C16.0358 3.72656 15.7734 3.9889 15.7734 4.3125C15.7734 4.6361 16.0358 4.89844 16.3594 4.89844Z" fill="#00730C"/>
<path d="M13.6724 17.7891C14.637 17.7891 15.4219 17.0005 15.4219 16.0312V13.6875C15.4219 13.4354 15.2607 13.2116 15.0216 13.1318L11.5143 11.9599C11.3426 11.9025 11.1542 11.9277 11.0036 12.0281L9.51211 13.0224C7.91141 12.2629 6.01949 10.3877 5.26699 8.81547L6.26098 7.32449C6.36133 7.17394 6.38652 6.98543 6.32918 6.81379L5.1573 3.30648C5.07742 3.06742 4.85363 2.90625 4.60156 2.90625H2.25781C1.28855 2.90625 0.5 3.69105 0.5 4.65574C0.5 7.89313 1.97203 11.2157 4.53867 13.7716C7.1025 16.3248 10.4316 17.7891 13.6724 17.7891ZM2.25781 4.07812H4.17957L5.12684 6.91313L4.11406 8.43227C4.00703 8.59281 3.9859 8.79574 4.05758 8.97488C4.44723 9.94898 5.22699 11.0446 6.2532 12.0598C7.27266 13.0684 8.37359 13.8396 9.35324 14.2315C9.53234 14.3031 9.73535 14.282 9.89586 14.175L11.415 13.1622L14.25 14.1095V16.0312C14.25 16.3598 13.9963 16.6172 13.6724 16.6172C7.50391 16.6172 1.67188 10.8041 1.67188 4.65574C1.67188 4.33184 1.92926 4.07812 2.25781 4.07812Z" fill="#00730C"/>
<path d="M11.4477 10.7132C11.6666 10.8039 11.9186 10.7537 12.0862 10.5862L14.2583 8.41406H16.3594C18.6425 8.41406 20.5 6.5741 20.5 4.3125C20.5 2.0509 18.6425 0.210938 16.3594 0.210938H11.6719C9.41027 0.210938 7.57031 2.0509 7.57031 4.3125C7.57031 6.3752 9.1009 8.08715 11.0859 8.37234V10.1719C11.0859 10.4089 11.2287 10.6225 11.4477 10.7132ZM8.74219 4.3125C8.74219 2.69707 10.0564 1.38281 11.6719 1.38281H16.3594C17.9963 1.38281 19.3281 2.69707 19.3281 4.3125C19.3281 5.92793 17.9963 7.24219 16.3594 7.24219H14.0156C13.8602 7.24219 13.7112 7.30391 13.6013 7.41379L12.2578 8.75731V7.82812C12.2578 7.50453 11.9955 7.24219 11.6719 7.24219C10.0564 7.24219 8.74219 5.92793 8.74219 4.3125Z" fill="#00730C"/>
</svg>
