<svg width="8" height="16" viewBox="0 0 8 16" fill="none" xmlns="http://www.w3.org/2000/svg">
<path d="M5.32957 0.50994C4.28271 0.673272 3.45904 1.28648 3.02329 2.22636C2.70976 2.90834 2.64599 3.32384 2.64599 4.73652V5.73657H1.74527C1.24575 5.73657 0.812658 5.74803 0.778117 5.76235C0.740919 5.77955 0.685122 5.81966 0.655895 5.85405C0.600098 5.91709 0.600098 5.93715 0.600098 7.23807C0.600098 8.4473 0.605412 8.56479 0.647924 8.61923C0.738262 8.74245 0.772803 8.74531 1.72667 8.74531H2.64599V11.84V14.9347L2.72304 15.0264L2.8001 15.121L4.03826 15.1296C5.13029 15.1353 5.28705 15.1325 5.35879 15.0923C5.52353 15.0006 5.51556 15.1439 5.51556 11.797V8.74531H6.57836C7.34358 8.74531 7.6571 8.73672 7.70759 8.71093C7.85372 8.63929 7.85372 8.62783 7.85372 7.22948V5.93715L7.77667 5.84545L7.69962 5.75089L6.60493 5.7423L5.5129 5.7337L5.52087 4.80815L5.52884 3.88547L5.60855 3.71641C5.69623 3.53302 5.84237 3.4098 6.03899 3.35249C6.09478 3.3353 6.48802 3.3181 6.91048 3.31237C7.33561 3.30378 7.71024 3.29232 7.74213 3.28372C7.77667 3.27512 7.83512 3.23501 7.86966 3.19489L7.93343 3.12039V1.8825C7.93343 0.667542 7.93343 0.644618 7.87763 0.581577C7.84841 0.547192 7.79261 0.507074 7.75541 0.489882C7.64913 0.446899 5.62715 0.464092 5.32957 0.50994Z" fill="#00730C"/>
</svg>
