<svg width="20" height="13" viewBox="0 0 20 13" fill="none" xmlns="http://www.w3.org/2000/svg">
<path d="M17.7551 5.49338V3.33838H16.6327V5.49338H14.3879V6.57089H16.6327V8.72589H17.7551V6.57089H19.9999V5.49338H17.7551Z" fill="white"/>
<path d="M6.75228 5.3611V7.89443H10.3357C9.81255 9.36883 8.40401 10.4278 6.75228 10.4278C4.65721 10.4278 2.95228 8.72283 2.95228 6.62777C2.95228 4.5327 4.65721 2.82777 6.75228 2.82777C7.66048 2.82777 8.53448 3.1533 9.21341 3.74483L10.8778 1.8347C9.73781 0.841634 8.27355 0.294434 6.75228 0.294434C3.26008 0.294434 0.418945 3.13557 0.418945 6.62777C0.418945 10.12 3.26008 12.9611 6.75228 12.9611C10.2445 12.9611 13.0856 10.12 13.0856 6.62777V5.3611H6.75228Z" fill="white"/>
</svg>
