<svg width="15" height="15" viewBox="0 0 15 15" fill="none" xmlns="http://www.w3.org/2000/svg">
<path d="M14.0836 14.3311V14.3306H14.0869V9.44057C14.0869 7.04834 13.5719 5.20557 10.7753 5.20557C9.43084 5.20557 8.52861 5.94334 8.16028 6.64279H8.12139V5.4289H5.46973V14.3306H8.23084V9.92279C8.23084 8.76224 8.45084 7.64001 9.88806 7.64001C11.3042 7.64001 11.3253 8.96446 11.3253 9.99724V14.3311H14.0836Z" fill="white"/>
<path d="M0.886963 5.42969H3.65141V14.3314H0.886963V5.42969Z" fill="white"/>
<path d="M2.26762 0.776367C1.38373 0.776367 0.666504 1.49359 0.666504 2.37748C0.666504 3.26137 1.38373 3.99359 2.26762 3.99359C3.1515 3.99359 3.86873 3.26137 3.86873 2.37748C3.86817 1.49359 3.15095 0.776367 2.26762 0.776367V0.776367Z" fill="white"/>
</svg>
