<svg width="17" height="14" viewBox="0 0 17 14" fill="none" xmlns="http://www.w3.org/2000/svg">
<path d="M16.8433 2.21527C16.2483 2.47627 15.6143 2.64927 14.9533 2.73327C15.6333 2.32727 16.1523 1.68927 16.3963 0.920269C15.7623 1.29827 15.0623 1.56527 14.3163 1.71427C13.7143 1.07327 12.8563 0.67627 11.9203 0.67627C10.1043 0.67627 8.64226 2.15027 8.64226 3.95727C8.64226 4.21727 8.66426 4.46727 8.71826 4.70527C5.99126 4.57227 3.57826 3.26527 1.95726 1.27427C1.67426 1.76527 1.50826 2.32727 1.50826 2.93227C1.50826 4.06827 2.09326 5.07527 2.96526 5.65827C2.43826 5.64827 1.92126 5.49527 1.48326 5.25427C1.48326 5.26427 1.48326 5.27727 1.48326 5.29027C1.48326 6.88427 2.62026 8.20827 4.11126 8.51327C3.84426 8.58627 3.55326 8.62127 3.25126 8.62127C3.04126 8.62127 2.82926 8.60927 2.63026 8.56527C3.05526 9.86427 4.26126 10.8193 5.69526 10.8503C4.57926 11.7233 3.16226 12.2493 1.62826 12.2493C1.35926 12.2493 1.10126 12.2373 0.843262 12.2043C2.29626 13.1413 4.01826 13.6763 5.87526 13.6763C11.9113 13.6763 15.2113 8.67627 15.2113 4.34227C15.2113 4.19727 15.2063 4.05727 15.1993 3.91827C15.8503 3.45627 16.3973 2.87927 16.8433 2.21527Z" fill="white"/>
</svg>
