<svg width="30" height="24" viewBox="0 0 30 24" fill="none" xmlns="http://www.w3.org/2000/svg">
<path d="M6.17944 9.50105C6.54546 7.21621 9.42134 4.77558 11.6697 4.72365C11.8266 4.72365 11.9835 4.67172 12.0881 4.56787C12.1926 4.51594 12.2972 4.46401 12.3495 4.30822C13.1338 2.85423 12.7155 1.71181 11.4083 0.7771C9.89194 -0.313394 7.48666 0.7771 6.28402 1.76374C3.25128 4.2563 0.166251 8.56626 0.323117 12.6687C-0.19977 15.421 -0.0951924 18.3808 0.689137 20.8214C1.21202 22.3793 2.72839 23.1582 4.29705 23.2621C5.86571 23.366 9.10761 23.8333 10.5194 22.8986C11.9312 21.9638 12.0358 20.1464 12.1926 18.5886C12.3495 16.875 12.8201 13.6553 11.356 12.3052C9.89194 11.007 5.70885 12.409 6.17944 9.50105Z" fill="#00730C"/>
<path d="M23.1963 9.50105C23.5623 7.21621 26.4381 4.77558 28.6866 4.72365C28.8435 4.72365 29.0003 4.67172 29.1049 4.56787C29.2096 4.51594 29.3141 4.46401 29.3664 4.30822C30.1508 2.85423 29.7325 1.71181 28.4252 0.7771C26.9089 -0.313394 24.5036 0.7771 23.3009 1.76374C20.2681 4.2563 17.1831 8.56634 17.34 12.6687C16.8171 15.421 16.9217 18.3808 17.7059 20.8214C18.2288 22.3793 19.7452 23.1582 21.3139 23.2621C22.8826 23.366 26.1245 23.8333 27.5363 22.8986C28.948 21.9638 29.0526 20.1464 29.2095 18.5886C29.3664 16.875 29.837 13.6553 28.3729 12.3052C26.9088 11.007 22.6734 12.409 23.1963 9.50105Z" fill="#00730C"/>
</svg>
