<svg width="375" height="240" viewBox="0 0 375 240" fill="none" xmlns="http://www.w3.org/2000/svg">
<rect width="375" height="240" fill="#C4C4C4"/>
<path d="M130.092 129.252C129.047 129.252 127.973 129.112 126.872 128.832C125.789 128.552 124.856 128.113 124.072 127.516C123.699 127.273 123.475 126.984 123.4 126.648C123.325 126.312 123.363 126.013 123.512 125.752C123.661 125.472 123.895 125.285 124.212 125.192C124.529 125.099 124.884 125.173 125.276 125.416C126.079 125.901 126.863 126.256 127.628 126.48C128.393 126.685 129.187 126.788 130.008 126.788C131.352 126.788 132.369 126.499 133.06 125.92C133.769 125.341 134.124 124.511 134.124 123.428C134.124 122.345 133.769 121.543 133.06 121.02C132.369 120.497 131.361 120.236 130.036 120.236H128.132C127.255 120.236 126.816 119.825 126.816 119.004C126.816 118.201 127.255 117.8 128.132 117.8H129.756C130.932 117.8 131.856 117.501 132.528 116.904C133.219 116.307 133.564 115.485 133.564 114.44C133.564 113.488 133.247 112.76 132.612 112.256C131.977 111.733 131.072 111.472 129.896 111.472C129.112 111.472 128.384 111.575 127.712 111.78C127.04 111.985 126.34 112.349 125.612 112.872C125.257 113.096 124.931 113.171 124.632 113.096C124.333 113.003 124.1 112.825 123.932 112.564C123.783 112.284 123.736 111.985 123.792 111.668C123.848 111.332 124.053 111.043 124.408 110.8C125.192 110.221 126.069 109.783 127.04 109.484C128.029 109.167 129.056 109.008 130.12 109.008C132.099 109.008 133.639 109.465 134.74 110.38C135.841 111.276 136.392 112.527 136.392 114.132C136.392 115.215 136.112 116.167 135.552 116.988C135.011 117.809 134.255 118.407 133.284 118.78C134.46 119.079 135.365 119.657 136 120.516C136.635 121.356 136.952 122.392 136.952 123.624C136.952 125.36 136.336 126.732 135.104 127.74C133.891 128.748 132.22 129.252 130.092 129.252ZM143.549 129.196C143.026 129.196 142.644 129.019 142.401 128.664C142.177 128.309 142.196 127.861 142.457 127.32L150.633 111.696H141.589C140.73 111.696 140.301 111.295 140.301 110.492C140.301 109.671 140.73 109.26 141.589 109.26H152.593C153.004 109.26 153.33 109.372 153.573 109.596C153.834 109.801 153.965 110.1 153.965 110.492C153.965 110.828 153.918 111.117 153.825 111.36C153.75 111.603 153.638 111.873 153.489 112.172L145.173 128.244C144.856 128.879 144.314 129.196 143.549 129.196ZM164.286 129.252C163.241 129.252 162.195 129.112 161.15 128.832C160.123 128.533 159.181 128.076 158.322 127.46C157.967 127.236 157.753 126.956 157.678 126.62C157.622 126.284 157.669 125.985 157.818 125.724C157.986 125.444 158.219 125.257 158.518 125.164C158.835 125.052 159.181 125.117 159.554 125.36C160.991 126.312 162.55 126.788 164.23 126.788C165.518 126.788 166.526 126.443 167.254 125.752C167.982 125.043 168.346 124.119 168.346 122.98C168.346 121.804 168.001 120.843 167.31 120.096C166.619 119.349 165.658 118.976 164.426 118.976C163.717 118.976 163.045 119.107 162.41 119.368C161.794 119.611 161.215 120.021 160.674 120.6C160.525 120.749 160.338 120.889 160.114 121.02C159.909 121.132 159.685 121.188 159.442 121.188C158.639 121.188 158.238 120.805 158.238 120.04V110.548C158.238 109.689 158.667 109.26 159.526 109.26H168.906C169.765 109.26 170.194 109.661 170.194 110.464C170.194 111.285 169.765 111.696 168.906 111.696H161.066V117.94C162.111 117.025 163.437 116.568 165.042 116.568C166.293 116.568 167.375 116.829 168.29 117.352C169.205 117.875 169.914 118.612 170.418 119.564C170.922 120.497 171.174 121.589 171.174 122.84C171.174 124.109 170.894 125.229 170.334 126.2C169.774 127.152 168.981 127.899 167.954 128.44C166.927 128.981 165.705 129.252 164.286 129.252ZM182.214 129.168C181.71 129.168 181.346 128.963 181.122 128.552C180.917 128.141 181.019 127.675 181.43 127.152L185.63 121.944L181.738 117.128C181.309 116.624 181.206 116.167 181.43 115.756C181.654 115.345 182.009 115.14 182.494 115.14C182.849 115.14 183.138 115.205 183.362 115.336C183.605 115.448 183.829 115.644 184.034 115.924L187.254 120.012L190.502 115.924C190.707 115.644 190.922 115.448 191.146 115.336C191.37 115.205 191.659 115.14 192.014 115.14C192.499 115.14 192.854 115.345 193.078 115.756C193.302 116.167 193.199 116.633 192.77 117.156L188.878 121.972L193.078 127.152C193.489 127.656 193.582 128.123 193.358 128.552C193.153 128.963 192.798 129.168 192.294 129.168C191.678 129.168 191.165 128.907 190.754 128.384L187.226 123.96L183.726 128.384C183.521 128.645 183.306 128.841 183.082 128.972C182.858 129.103 182.569 129.168 182.214 129.168ZM205.758 129C204.806 129 204.33 128.561 204.33 127.684C204.33 127.217 204.582 126.713 205.086 126.172L211.05 119.788C211.965 118.817 212.618 117.931 213.01 117.128C213.421 116.307 213.626 115.485 213.626 114.664C213.626 112.536 212.375 111.472 209.874 111.472C209.127 111.472 208.399 111.584 207.69 111.808C206.999 112.032 206.318 112.396 205.646 112.9C205.31 113.143 204.993 113.227 204.694 113.152C204.414 113.059 204.19 112.872 204.022 112.592C203.873 112.312 203.817 112.013 203.854 111.696C203.91 111.36 204.106 111.071 204.442 110.828C205.207 110.249 206.094 109.801 207.102 109.484C208.11 109.167 209.137 109.008 210.182 109.008C212.217 109.008 213.775 109.475 214.858 110.408C215.959 111.341 216.51 112.676 216.51 114.412C216.51 115.588 216.221 116.736 215.642 117.856C215.082 118.976 214.195 120.171 212.982 121.44L208.082 126.564H216.23C217.089 126.564 217.518 126.965 217.518 127.768C217.518 128.589 217.089 129 216.23 129H205.758ZM230.527 129.196C230.079 129.196 229.724 129.075 229.463 128.832C229.202 128.571 229.071 128.216 229.071 127.768V124.996H221.567C221.1 124.996 220.727 124.893 220.447 124.688C220.167 124.483 220.027 124.175 220.027 123.764C220.027 123.503 220.092 123.232 220.223 122.952C220.354 122.672 220.568 122.308 220.867 121.86L229.015 110.016C229.22 109.699 229.454 109.465 229.715 109.316C229.976 109.148 230.275 109.064 230.611 109.064C231.003 109.064 231.32 109.185 231.563 109.428C231.824 109.652 231.955 110.007 231.955 110.492V122.56H233.719C234.596 122.56 235.035 122.961 235.035 123.764C235.035 124.585 234.596 124.996 233.719 124.996H231.955V127.768C231.955 128.72 231.479 129.196 230.527 129.196ZM229.071 122.56V113.768L223.051 122.56H229.071ZM244.068 129.252C241.772 129.252 240.017 128.384 238.804 126.648C237.609 124.893 237.012 122.383 237.012 119.116C237.012 115.793 237.609 113.283 238.804 111.584C240.017 109.867 241.772 109.008 244.068 109.008C246.383 109.008 248.137 109.867 249.332 111.584C250.527 113.283 251.124 115.784 251.124 119.088C251.124 122.373 250.517 124.893 249.304 126.648C248.109 128.384 246.364 129.252 244.068 129.252ZM244.068 126.844C245.487 126.844 246.541 126.219 247.232 124.968C247.923 123.699 248.268 121.739 248.268 119.088C248.268 116.419 247.923 114.477 247.232 113.264C246.56 112.032 245.505 111.416 244.068 111.416C242.649 111.416 241.595 112.032 240.904 113.264C240.213 114.496 239.868 116.437 239.868 119.088C239.868 121.739 240.213 123.699 240.904 124.968C241.595 126.219 242.649 126.844 244.068 126.844Z" fill="#212529"/>
</svg>
