<svg width="46" height="50" viewBox="0 0 46 50" fill="none" xmlns="http://www.w3.org/2000/svg">
<path d="M2.9742 13.3338L1.7242 15.4988C1.26397 16.2959 1.53707 17.3152 2.3342 17.7755L10.2725 22.3588C11.0697 22.819 12.089 22.5459 12.5492 21.7488L13.7992 19.5838C14.2594 18.7867 13.9863 17.7674 13.1892 17.3071L5.25087 12.7238C4.45374 12.2636 3.43444 12.5367 2.9742 13.3338Z" fill="#00730C"/>
<path d="M18.7668 21.3583L15.6668 19.5833L13.5835 23.1916C17.0335 25.1749 16.7752 25.0833 17.0918 25.0499C17.5723 25.6651 18.0121 26.3109 18.4085 26.9833C18.9858 25.8261 19.6458 24.7121 20.3835 23.6499C19.8335 23.1749 19.3668 22.8166 19.0252 22.5666C19.2642 22.1576 19.1523 21.6338 18.7668 21.3583Z" fill="#00730C"/>
<path d="M10.2701 35.1409L2.33176 39.7243C1.53463 40.1845 1.26152 41.2038 1.72176 42.001L2.97176 44.166C3.432 44.9631 4.4513 45.2362 5.24843 44.776L13.1868 40.1926C13.9839 39.7324 14.257 38.7131 13.7968 37.9159L12.5468 35.7509C12.0865 34.9538 11.0672 34.6807 10.2701 35.1409Z" fill="#00730C"/>
<path d="M34.8918 15.9416C30.6668 17.7416 30.9334 17.5666 29.6501 18.3333C26.5834 20.1083 23.5418 21.9916 21.6334 24.7833C20.8105 26.0684 20.0647 27.4013 19.4001 28.775C18.7678 30.0911 18.0027 31.3393 17.1168 32.5C16.7668 32.5 17.0668 32.35 13.6001 34.35L15.6668 37.9166L18.7501 36.1416C19.1399 35.8483 19.2412 35.3058 18.9834 34.8916L19.0334 34.9583C21.3387 33.208 23.3647 31.1174 25.0418 28.7583C28.2001 24.4083 24.8751 26.8333 35.8751 20.4833L45.8751 14.725C42.1692 14.2647 38.4071 14.6815 34.8918 15.9416Z" fill="#00730C"/>
<path d="M26.0501 30.2083C25.0273 31.5853 23.8929 32.8758 22.6584 34.0667C24.5251 36.2333 29.0084 38.975 31.3751 40.1083C30.9616 42.2129 30.362 44.2765 29.5834 46.275C29.2447 46.9685 29.3171 47.7924 29.7715 48.4163C30.226 49.0401 30.9882 49.3615 31.7521 49.2515C32.5161 49.1416 33.1566 48.6183 33.4168 47.8917C34.2387 45.8903 34.8856 43.8214 35.3501 41.7083C38.7246 42.8525 42.3145 43.2172 45.8501 42.775L36.1834 37.1917C36.8701 32.2348 36.8701 27.2069 36.1834 22.25L32.2168 24.5417C32.5641 27.9801 32.5641 31.4449 32.2168 34.8833C26.3334 31.5083 27.5418 32.4083 26.0501 30.2083Z" fill="#00730C"/>
<path d="M27.0751 11.8C25.4084 7.15 17.1167 3.925 13.9167 6.53333C13.8251 8.63333 15.9084 11.2583 19.1334 12.875C22.1417 14.375 25.2417 14.5417 26.9667 13.475C27.9101 13.5959 28.865 13.5959 29.8084 13.475C30.0834 14.3083 30.3501 15.1417 30.5751 15.975L34.3584 14.375C34.4917 14.375 34.4501 14.375 34.3584 14.15C33.9501 9.7 40.6667 6.50833 40.6667 6.48333C41.4157 6.23318 41.9589 5.5811 42.0695 4.79925C42.1802 4.0174 41.8393 3.24019 41.1892 2.79202C40.539 2.34386 39.6914 2.30177 39.0001 2.68333C36.3672 3.93296 34.0489 5.75852 32.2167 8.025C31.3231 5.91892 30.3047 3.86806 29.1667 1.88333C28.8073 1.2182 28.1156 0.800017 27.3596 0.790687C26.6036 0.781356 25.9019 1.18234 25.5261 1.8384C25.1504 2.49446 25.1595 3.30262 25.5501 3.95C26.9989 6.48101 28.2391 9.12587 29.2584 11.8583C28.5307 11.9194 27.7985 11.8998 27.0751 11.8Z" fill="#00730C"/>
</svg>
