<svg width="36" height="33" viewBox="0 0 36 33" fill="none" xmlns="http://www.w3.org/2000/svg">
<path fill-rule="evenodd" clip-rule="evenodd" d="M24.6064 3.09025V6.04274H35.2054L31.0609 1.86084L24.6064 3.09025Z" fill="#00730C"/>
<path fill-rule="evenodd" clip-rule="evenodd" d="M19.0181 0.640679V9.2698C19.0114 9.4703 19.132 9.65323 19.3189 9.72614C19.4938 9.80429 19.699 9.76237 19.8293 9.62179L22.7435 6.60131V2.75122L19.8917 0.35199C19.7897 0.233349 19.6437 0.161641 19.4875 0.153564C19.4296 0.153674 19.3723 0.165351 19.3189 0.188054C19.1333 0.260526 19.0131 0.441598 19.0181 0.640679Z" fill="#00730C"/>
<path fill-rule="evenodd" clip-rule="evenodd" d="M14.3613 7.90552C12.8182 7.90552 11.5671 9.15654 11.5671 10.6996V12.5624C11.5671 13.0768 11.9842 13.4938 12.4985 13.4938C13.0129 13.4938 13.4298 13.0768 13.4298 12.5624V10.6996C13.4298 10.1852 13.8469 9.7683 14.3611 9.7683C14.8755 9.7683 15.2925 9.35136 15.2925 8.83696C15.2925 8.32256 14.8757 7.90552 14.3613 7.90552Z" fill="#00730C"/>
<path fill-rule="evenodd" clip-rule="evenodd" d="M14.3614 4.17993C10.7626 4.18452 7.84638 7.10077 7.8418 10.6995V12.5623C7.8418 13.0767 8.25873 13.4936 8.77313 13.4936C9.28753 13.4936 9.70447 13.0767 9.70447 12.5623V10.6995C9.70752 8.12891 11.7907 6.04577 14.3614 6.0426C14.8758 6.0426 15.2927 5.62567 15.2927 5.11127C15.2927 4.59687 14.8758 4.17993 14.3614 4.17993Z" fill="#00730C"/>
<path fill-rule="evenodd" clip-rule="evenodd" d="M14.3613 0.45459C8.70587 0.461248 4.12287 5.04426 4.11621 10.6997V12.5624C4.11621 13.0768 4.53325 13.4937 5.04755 13.4937C5.56184 13.4937 5.97888 13.0768 5.97888 12.5624V10.6996C5.98401 6.0723 9.73391 2.32239 14.3612 2.31726C14.8756 2.31726 15.2926 1.90022 15.2926 1.38593C15.2927 0.871524 14.8757 0.45459 14.3613 0.45459Z" fill="#00730C"/>
<path fill-rule="evenodd" clip-rule="evenodd" d="M32.0574 31.1897C32.0574 30.6753 31.6404 30.2583 31.126 30.2583H17.1554V27.7901C17.3387 27.5591 17.5346 27.3384 17.7422 27.1288C17.9387 26.9184 18.1469 26.7193 18.3662 26.5328H23.675C27.274 26.5286 30.1905 23.6122 30.1946 20.0132V16.3901C28.4749 17.5406 26.4519 18.1534 24.3828 18.1504C21.1868 18.1525 18.4483 20.4367 17.8725 23.5803L17.6769 24.6793C17.157 25.0862 16.6711 25.5346 16.224 26.0205C15.7769 25.5346 15.291 25.0862 14.7711 24.6793L14.5755 23.5803C13.9997 20.4366 11.2612 18.1525 8.06517 18.1504C5.99611 18.1534 3.9731 17.5406 2.25341 16.3901V20.0132C2.25755 23.6122 5.17402 26.5287 8.77298 26.5328H14.0818C14.5223 26.9147 14.9276 27.3355 15.2926 27.7901V30.2582H1.32196C0.80756 30.2582 0.390625 30.6753 0.390625 31.1896C0.390625 31.7039 0.807669 32.121 1.32207 32.121H31.126C31.6404 32.121 32.0574 31.7041 32.0574 31.1897Z" fill="#00730C"/>
</svg>
